<svg width="627" height="1090" viewBox="0 0 627 1090" fill="none" xmlns="http://www.w3.org/2000/svg">
<g id="robot">
<g id="piernas">
<path id="&#60;Path&#62;" d="M319.7 750.001H267.3V654.801H319.7V750.001Z" fill="#043340"/>
<g id="&#60;Group&#62;">
<g id="&#60;Group&#62;_2">
<path id="&#60;Path&#62;_2" d="M226.9 970.801C217.7 969.701 211.2 961.401 212.3 952.301L236.2 748.001C237.3 738.901 245.6 732.301 254.8 733.401C263.9 734.501 270.5 742.801 269.4 751.901L245.4 956.201C244.4 965.401 236 971.901 226.9 970.801Z" fill="#043340"/>
</g>
<g id="&#60;Group&#62;_3">
<path id="&#60;Path&#62;_3" d="M367.2 965.201L336.1 752.401C334.8 743.301 341.1 734.801 350.2 733.401C359.3 732.101 367.8 738.401 369.2 747.601L400.2 960.401C401.6 969.501 395.2 978.001 386.1 979.301C376.9 980.601 368.5 974.301 367.2 965.201V965.201Z" fill="#043340"/>
</g>
<g id="&#60;Group&#62;_4">
<path id="&#60;Path&#62;_4" d="M254.7 878.701L257.6 1064.6L155.2 1060.7L200.2 878.401C202.6 868.901 207.5 860.001 213.7 856.801C220.4 853.501 230.2 854.101 237.2 856.101C245.1 858.401 254.7 870.201 254.7 878.701Z" fill="#A2BFDC"/>
<g id="&#60;Path&#62;_5" style="mix-blend-mode:multiply" opacity="0.5">
<path d="M257.6 1064.6L155.2 1060.7C222 1052.1 245.2 943.801 253.3 872.401C254.2 874.601 254.7 876.701 254.7 878.701L257.6 1064.6Z" fill="#A3B6BF"/>
</g>
<path id="&#60;Path&#62;_6" d="M203.6 1062.6L212.2 962.601H179.4C179.533 962.068 179.7 961.535 179.9 961.001L180.2 959.701H212.4L221.4 854.701C222.4 854.568 223.4 854.501 224.4 854.501L212.2 996.601L256.6 1001.3V1004.3L211.9 999.601L206.5 1062.7L203.6 1062.6Z" fill="#4890C0"/>
<path id="&#60;Path&#62;_7" d="M217 991.301C217.7 991.301 218.2 991.901 218.2 992.601C218.2 993.301 217.7 993.901 217 993.901C216.3 993.901 215.7 993.301 215.7 992.601C215.7 991.901 216.3 991.301 217 991.301Z" fill="#4890C0"/>
<path id="&#60;Path&#62;_8" d="M210.3 953.901C211.1 953.901 211.8 954.601 211.8 955.401C211.8 956.201 211.1 956.901 210.3 956.901C209.4 956.901 208.7 956.201 208.7 955.401C208.7 954.601 209.4 953.901 210.3 953.901Z" fill="#4890C0"/>
<path id="&#60;Path&#62;_9" d="M264.9 1089.7C264.9 1089.7 141.1 1091.2 131.9 1086.7C122.6 1082.3 156.2 1053.7 173.8 1048.4C206.4 1038.6 253.7 1050.9 261.5 1069.1C269.3 1087.2 264.9 1089.7 264.9 1089.7V1089.7Z" fill="#B1D1E1"/>
<path id="&#60;Path&#62;_10" d="M253.2 1079.9C253.2 1079.9 257.6 1077.4 249.8 1059.2C249.4 1058.2 248.867 1057.23 248.2 1056.3C254.7 1060 259.4 1064.3 261.5 1069.1C269.3 1087.2 264.9 1089.7 264.9 1089.7C264.9 1089.7 141.1 1091.2 131.9 1086.7C129.3 1085.5 130 1082.5 132.7 1078.6C166.3 1080.9 253.2 1079.9 253.2 1079.9V1079.9Z" fill="#043340"/>
</g>
<g id="&#60;Group&#62;_5">
<path id="&#60;Path&#62;_11" d="M368.2 849.201C375.3 847.201 385.1 846.501 391.9 849.901C398.2 853.001 403.2 862.001 405.5 871.501L450.9 1054L347.7 1057.9L350.5 871.801C350.5 863.301 360.3 851.501 368.2 849.201V849.201Z" fill="#A2BFDC"/>
<g id="&#60;Path&#62;_12" style="mix-blend-mode:multiply" opacity="0.5">
<path d="M350.5 871.801C350.5 869.801 351.1 867.601 352 865.501C360.1 937.001 383.5 1045.3 450.9 1054L347.7 1057.9L350.5 871.801Z" fill="#A3B6BF"/>
</g>
<path id="&#60;Path&#62;_13" d="M402.1 1055.8L400.2 1055.9L399.2 1056L393.7 992.801L348.6 997.501V995.001C348.6 994.935 348.633 994.835 348.7 994.701V994.501L393.5 989.901L381.2 847.601C382.2 847.601 383.2 847.668 384.2 847.801L393.2 952.901H425.8V953.101C426.067 954.035 426.3 954.935 426.5 955.801H393.5L402.1 1055.8Z" fill="#4890C0"/>
<path id="&#60;Path&#62;_14" d="M389.9 985.801C389.9 986.501 389.4 987.101 388.7 987.101C387.9 987.101 387.4 986.501 387.4 985.801C387.4 985.101 387.9 984.501 388.7 984.501C389.4 984.501 389.9 985.101 389.9 985.801Z" fill="#4890C0"/>
<path id="&#60;Path&#62;_15" d="M397 948.601C397 949.401 396.3 950.101 395.4 950.101C394.6 950.101 393.9 949.401 393.9 948.601C393.9 947.701 394.6 947.001 395.4 947.001C396.3 947.001 397 947.701 397 948.601Z" fill="#4890C0"/>
<path id="&#60;Path&#62;_16" d="M343.7 1062.3C351.6 1044.2 399.3 1031.9 432.2 1041.7C450 1047 483.9 1075.6 474.5 1080C465.2 1084.5 340.3 1083 340.3 1083C340.3 1083 335.9 1080.5 343.7 1062.3Z" fill="#B1D1E1"/>
<path id="&#60;Path&#62;_17" d="M473.7 1071.9C476.4 1075.8 477.1 1078.8 474.5 1080C465.2 1084.5 340.3 1083 340.3 1083C340.3 1083 335.9 1080.5 343.7 1062.3C345.8 1057.6 350.6 1053.2 357.1 1049.6C356.433 1050.53 355.9 1051.5 355.5 1052.5C347.6 1070.7 352 1073.2 352 1073.2C352 1073.2 439.8 1074.2 473.7 1071.9V1071.9Z" fill="#043340"/>
</g>
<g id="&#60;Group&#62;_6">
<g id="&#60;Group&#62;_7">
<path id="&#60;Path&#62;_18" d="M377.1 725.101C416.8 725.101 346.3 825.801 300.9 825.801C246.3 825.801 180.6 724.401 220.3 724.401L377.1 725.101Z" fill="#A2BFDC"/>
<g id="&#60;Path&#62;_19" style="mix-blend-mode:multiply" opacity="0.5">
<path d="M300.9 825.801C266.8 825.801 228.3 786.201 214 756.501C232 776.401 256 793.101 278.3 793.101C306.4 793.101 344.1 754.401 359.4 725.001L377.1 725.101C416.8 725.101 346.3 825.801 300.9 825.801V825.801Z" fill="#A3B6BF"/>
</g>
</g>
<path id="&#60;Path&#62;_20" d="M385.3 753.101H212.3C205.7 753.101 200.3 747.701 200.3 741.101V728.401C200.3 721.801 205.7 716.401 212.3 716.401H385.3C391.9 716.401 397.3 721.801 397.3 728.401V741.101C397.3 747.701 391.9 753.101 385.3 753.101Z" fill="#043340"/>
</g>
</g>
</g>
<g id="torso">
<g id="&#60;Group&#62;_8">
<g id="&#60;Group&#62;_9">
<path id="&#60;Path&#62;_21" d="M161.1 601.201C158.8 583.701 154 557.501 160.7 541.801C169.3 521.601 194.7 501.101 218.8 491.201C223.4 489.301 227.8 487.101 232.7 486.801C273.4 484.301 314.1 485.501 354.5 490.301C369.9 492.101 409.8 509.401 421.9 539.301C427.8 554.001 425.8 578.201 423.4 595.801C418.7 630.101 388.9 664.401 363.1 691.701H217.5C191.7 664.401 165.8 635.501 161.1 601.201Z" fill="#A2BFDC"/>
<path id="&#60;Path&#62;_22" d="M344.2 503.501C344.2 513.401 320.9 521.501 292.2 521.501C263.4 521.501 240.1 513.401 240.1 503.501C240.1 493.601 263.4 485.501 292.2 485.501C320.9 485.501 344.2 493.601 344.2 503.501Z" fill="#032630"/>
<path id="&#60;Path&#62;_23" d="M344.2 503.501C344.2 513.401 320.9 521.501 292.2 521.501C290.8 521.501 289.467 521.468 288.2 521.401C315.1 520.701 336.2 513.001 336.2 503.501C336.2 494.001 315.1 486.301 288.2 485.601C289.467 485.535 290.8 485.501 292.2 485.501C320.9 485.501 344.2 493.601 344.2 503.501Z" fill="#A3B6BF"/>
<path id="&#60;Path&#62;_24" d="M307.3 691.701C310.9 654.401 315.9 616.301 326.5 580.401C303.3 578.801 280.1 580.601 257 582.801C265.4 618.501 269.5 655.801 276.5 691.701H264C251.6 625.501 248.8 552.401 206.8 496.901C210.5 494.901 214.2 493.101 218 491.501C235.6 515.701 246.4 542.601 253.9 570.801C279.4 568.301 304.8 566.201 330.3 568.401C339.3 541.801 351.8 516.701 369.5 494.401C373.1 495.801 377.1 497.501 381.1 499.601C337.4 552.901 326 623.901 319.7 691.701H307.3Z" fill="#4890C0"/>
<g id="&#60;Path&#62;_25" style="mix-blend-mode:multiply" opacity="0.5">
<path d="M423.4 595.801C418.7 630.101 388.9 664.401 363.1 691.701H217.5C206.2 679.801 195 667.601 185.5 654.801H267.3C331 654.801 379.8 607.001 386.5 558.901C388.7 542.101 391.1 516.801 384.5 501.401C399.6 509.701 415.1 522.501 421.9 539.301C427.8 554.001 425.8 578.201 423.4 595.801V595.801Z" fill="#A3B6BF"/>
</g>
</g>
<path id="&#60;Path&#62;_26" d="M319.6 443.601C318.3 502.901 322.4 508.301 315.5 519.601C308.5 520.801 300.5 521.501 292.2 521.501C283.8 521.501 275.8 520.801 268.8 519.601C266.2 515.401 264.7 510.501 264.7 505.201V443.601H319.6Z" fill="#043340"/>
<path id="&#60;Path&#62;_27" d="M292.2 521.501C290.8 521.501 289.467 521.468 288.2 521.401C332.6 520.301 353.3 501.101 319.6 490.301L319.5 488.201C364.4 497.801 343.8 521.501 292.2 521.501V521.501Z" fill="#5B8295"/>
</g>
<path id="&#60;Path&#62;_28" d="M425.3 589.301C420.6 617.701 408.8 639.401 399 637.701C389.2 636.101 385.1 611.801 389.9 583.401C394.6 555.001 406.4 533.401 416.2 535.001C426 536.701 430.1 561.001 425.3 589.301Z" fill="#032630"/>
<path id="&#60;Path&#62;_29" d="M425.3 589.301C425.1 590.635 424.867 591.968 424.6 593.301C428.4 566.601 424.2 544.501 414.9 542.901C405.6 541.301 394.4 560.901 389.3 587.301C389.433 586.035 389.633 584.735 389.9 583.401C394.6 555.001 406.4 533.401 416.2 535.001C426 536.701 430.1 561.001 425.3 589.301V589.301Z" fill="#5B8295"/>
<path id="&#60;Path&#62;_30" d="M168.4 540.301C178.2 538.701 190 560.301 194.7 588.701C199.5 617.001 195.4 641.301 185.6 643.001C175.8 644.601 164 623.001 159.3 594.601C154.5 566.301 158.6 541.901 168.4 540.301Z" fill="#032630"/>
<path id="&#60;Path&#62;_31" d="M168.4 540.301C178.2 538.701 190 560.301 194.7 588.701C194.967 589.968 195.2 591.268 195.4 592.601C190.2 566.201 179.1 546.601 169.7 548.101C160.4 549.701 156.2 571.901 160 598.501C159.733 597.235 159.5 595.935 159.3 594.601C154.5 566.301 158.6 541.901 168.4 540.301V540.301Z" fill="#5B8295"/>
</g>
<g id="brazoD">
<g id="&#60;Group&#62;_10">
<path id="&#60;Path&#62;_32" d="M477.3 626.501C426.8 626.501 397.4 585.001 396 583.001C390.8 575.401 392.7 565.001 400.3 559.801C407.8 554.501 418.2 556.401 423.5 563.901C424.6 565.601 450.5 601.101 492.2 591.301C507.2 587.801 523.8 564.501 537.9 527.501C541.2 518.901 550.8 514.501 559.5 517.801C568.1 521.101 572.4 530.701 569.1 539.401C550.2 589.001 526.9 617.401 499.8 623.801C491.9 625.701 484.4 626.501 477.3 626.501V626.501Z" fill="#043340"/>
</g>
<path id="&#60;Path&#62;_33" d="M585 487.001C585 487.001 569.6 589.901 548.8 609.301C528.1 628.801 481 592.901 484.2 579.101C486.8 567.701 559.3 472.501 559.3 472.501L585 487.001Z" fill="#A2BFDC"/>
<path id="&#60;Path&#62;_34" d="M573.6 545.601C573.267 547.001 572.933 548.401 572.6 549.801C572.333 549.801 572.1 549.801 571.9 549.801C563.5 549.801 552.3 548.101 541 541.201L509.6 607.801C508.4 607.135 507.2 606.468 506 605.801L566.9 476.801L570.5 478.801L542.8 537.501C554.1 544.501 565.6 545.801 573.6 545.601V545.601Z" fill="#4890C0"/>
<path id="&#60;Path&#62;_35" d="M553.9 438.401C556.7 443.401 560.4 441.301 564.3 438.401C568.3 435.401 564.3 397.901 567.4 394.801C570.5 391.701 577 394.501 576.8 398.101C576.7 401.801 575.2 433.401 577.6 432.501C580.1 431.701 589.1 402.601 590.7 399.301C592.2 396.001 598.3 397.801 598.3 402.001C598.4 406.201 587.9 436.601 590.2 437.701C592.4 438.701 603 418.701 605.6 413.201C608.2 407.701 612.8 408.401 614.6 413.201C616.3 418.001 597.9 445.301 601.8 447.101C605.7 449.001 623.3 426.501 626.2 429.601C630.5 434.101 613.9 453.901 609.1 455.701C604.3 457.401 600.4 474.701 591 482.301C581.6 490.001 570.5 487.501 560.6 482.901C550.8 478.301 547.6 457.801 544.2 448.601C542.1 442.801 537.2 436.301 533.9 432.401C531.7 429.901 533.1 425.701 536.4 425.301C543.9 424.501 551.7 434.501 553.9 438.401Z" fill="#043340"/>
</g>
<g id="brazoI">
<g id="&#60;Group&#62;_11">
<path id="&#60;Path&#62;_36" d="M101.7 785.401C86.6001 691.701 131.3 602.201 157 574.901C163.4 568.201 173.9 567.901 180.7 574.201C187.3 580.501 187.7 591.101 181.4 597.801C180.9 598.301 151.5 630.901 136.6 699.201C130.8 725.301 130.2 752.501 134.7 780.101C136.1 789.201 129.9 797.801 120.8 799.201C111.7 800.701 103.2 794.501 101.7 785.401Z" fill="#043340"/>
</g>
<path id="&#60;Path&#62;_37" d="M104 808.401C104 808.401 69.7 710.201 79.1 683.301C88.4 656.401 146.7 666.301 150.4 680.001C153.4 691.301 133.5 809.301 133.5 809.301L104 808.401Z" fill="#A2BFDC"/>
<path id="&#60;Path&#62;_38" d="M86.8 751.201C86.4667 749.801 86.1334 748.401 85.8 747.001C86 746.868 86.2 746.768 86.4 746.701C93.8 742.801 104.5 739.101 117.7 739.901L114.5 666.301C115.9 666.368 117.267 666.435 118.6 666.501L124.8 809.101L120.6 808.901L117.8 744.101C104.5 743.101 93.8 747.301 86.8 751.201V751.201Z" fill="#4890C0"/>
<path id="&#60;Path&#62;_39" d="M98.7001 811.301C98.7001 811.301 106.2 796.201 126.7 800.801C147.2 805.501 141 826.001 146.8 835.401C152.7 844.701 159 857.701 154.8 860.301C150.6 863.001 135 848.701 131.8 843.601C128.6 838.401 118.8 865.801 117 873.801C115.2 881.701 128.6 905.501 123.5 908.801C118.3 912.001 96.9 878.601 94.1 874.201C91.3 869.801 97.0001 818.901 98.7001 811.301V811.301Z" fill="#043340"/>
</g>
<g id="cabeza">
<g id="&#60;Group&#62;_12">
<path id="&#60;Path&#62;_40" d="M571.3 282.601C571.3 353.501 443.4 410.901 285.6 410.901C127.9 410.901 0 353.501 0 282.601C0 211.801 127.9 154.301 285.6 154.301C443.4 154.301 571.3 211.801 571.3 282.601V282.601Z" fill="#043340"/>
<g id="&#60;Group&#62;_13">
<path id="&#60;Path&#62;_41" d="M17.9 237.801C21.5667 233.401 25.7334 229.135 30.4 225.001C28.9 265.401 35.3 312.601 50.1 355.201C44.0333 351.201 38.4667 347.068 33.4 342.801C23.1 307.901 18.1 271.101 17.9 237.801Z" fill="#A2BFDC"/>
<path id="&#60;Path&#62;_42" d="M536.1 344.401C530.767 348.668 524.933 352.801 518.6 356.801C534.9 313.701 543.1 265.601 540.7 224.801C545.433 229.001 549.633 233.301 553.3 237.701C553.5 271.401 547.5 308.801 536.1 344.401Z" fill="#A2BFDC"/>
</g>
</g>
<path id="&#60;Path&#62;_43" d="M363.3 464.301C310.4 457.001 256.7 455.901 203.4 461.001C80.7 473.001 37 289.201 54.5 196.701C63.4 149.601 116 115.801 160.4 105.301C240.8 86.3014 326.7 85.1014 407.5 102.001C450.9 111.301 493.8 140.701 510.7 183.001C546 271.301 483.1 481.001 363.3 464.301V464.301Z" fill="#A2BFDC"/>
<g id="&#60;Path&#62;_44" style="mix-blend-mode:multiply" opacity="0.5">
<path d="M363.3 464.301C310.4 457.001 256.7 455.901 203.4 461.001C160.5 465.201 127.3 445.501 102.9 414.101C123.4 429.501 148 437.701 177.2 434.801C230.5 429.701 284.2 430.801 337.1 438.101C456.9 454.801 519.8 245.101 484.5 156.801C480.8 147.401 475.7 138.601 469.7 130.601C487.7 144.301 502.4 162.101 510.7 183.001C546 271.301 483.1 481.001 363.3 464.301V464.301Z" fill="#A3B6BF"/>
</g>
<path id="&#60;Path&#62;_45" d="M402.8 378.101C382.4 386.101 360.5 391.001 340.4 393.701C276.2 402.501 199.1 397.901 142.9 363.101C117.6 347.401 98.0001 324.001 93.3001 294.101C92.9001 291.635 92.5 289.201 92.1 286.801C83 229.501 124.9 176.901 182.7 172.401C252.5 167.001 322.6 167.001 392.3 172.401C450.1 176.901 492 229.501 482.9 286.801C482.567 289.068 482.233 291.335 481.9 293.601C475 337.101 441.5 363.101 402.8 378.101Z" fill="#043340"/>
<path id="&#60;Path&#62;_46" d="M341.6 336.401C341.6 347.501 318.6 366.701 290.3 366.701C261.9 366.701 238.9 347.501 238.9 336.401C238.9 325.301 261.9 326.701 290.3 326.701C318.6 326.701 341.6 325.301 341.6 336.401Z" fill="#2FC670"/>
<path id="&#60;Path&#62;_47" d="M216.3 266.501C216.3 275.601 208.9 283.001 199.8 283.001C190.6 283.001 183.3 275.601 183.3 266.501C183.3 257.301 190.6 249.901 199.8 249.901C208.9 249.901 216.3 257.301 216.3 266.501Z" fill="#2FC670"/>
<path id="&#60;Path&#62;_48" d="M387.9 261.201C387.9 270.301 380.5 277.701 371.4 277.701C362.2 277.701 354.8 270.301 354.8 261.201C354.8 252.001 362.2 244.701 371.4 244.701C380.5 244.701 387.9 252.001 387.9 261.201V261.201Z" fill="#2FC670"/>
</g>
<g id="antena">
<g id="&#60;Group&#62;_14">
<path id="&#60;Path&#62;_49" d="M280.6 74.1014L293 70.3014L260.7 60.4014L281.1 49.6014L281.6 24.8014L287.3 24.9014L286.8 53.1014L275.7 59.0014L312.5 70.2014L286.3 78.4014L285.8 104.901L280 104.801L280.6 74.1014Z" fill="black"/>
</g>
<path id="&#60;Path&#62;_50" d="M284.9 0.00136666C291.8 0.101367 297.3 5.80136 297.1 12.7014C297 19.6014 291.3 25.0014 284.4 24.9014C277.6 24.7014 272.1 19.1014 272.2 12.2014C272.4 5.30136 278.1 -0.0986333 284.9 0.00136666V0.00136666Z" fill="black"/>
<path id="&#60;Path&#62;_51" d="M285.9 98.4014C303.4 98.8014 317.3 105.701 317.2 113.901C317 122.201 302.8 128.501 285.4 128.201C267.9 127.901 254 120.901 254.1 112.701C254.3 104.501 268.5 98.1014 285.9 98.4014Z" fill="#1E191B"/>
</g>
</g>
</svg>
