<svg version="1.2" xmlns="http://www.w3.org/2000/svg" viewBox="0 0 4300 2000" width="4300" height="2000">
	<title>5847-ai</title>
	<style>
		.s0 { fill: #043340 } 
		.s1 { fill: #a2bfdc } 
		.s2 { opacity: .5;mix-blend-mode: multiply;fill: #a3b6bf } 
		.s3 { fill: #4890c0 } 
		.s4 { fill: #b1d1e1 } 
		.s5 { fill: #032630 } 
		.s6 { fill: #a3b6bf } 
		.s7 { fill: #5b8295 } 
		.s8 { fill: #2fc670 } 
		.s9 { fill: #000000 } 
		.s10 { fill: #1e191b } 
	</style>
	<g id="Layer 1">
		<g id="&lt;Group&gt;">
			<path id="&lt;Path&gt;" class="s0" d="m1898.8 986.1h-52.4v-95.2h52.4z"/>
			<g id="&lt;Group&gt;">
				<g id="&lt;Group&gt;">
					<path id="&lt;Path&gt;" class="s0" d="m1806 1206.9c-9.2-1.1-15.7-9.4-14.6-18.5l23.9-204.3c1.1-9.1 9.4-15.7 18.6-14.6 9.1 1.1 15.7 9.4 14.6 18.5l-24 204.3c-1 9.2-9.4 15.7-18.5 14.6z"/>
				</g>
				<g id="&lt;Group&gt;">
					<path id="&lt;Path&gt;" class="s0" d="m1946.3 1201.3l-31.1-212.8c-1.3-9.1 5-17.6 14.1-19 9.1-1.3 17.6 5 19 14.2l31 212.8c1.4 9.1-5 17.6-14.1 18.9-9.2 1.3-17.6-5-18.9-14.1z"/>
				</g>
				<g id="&lt;Group&gt;">
					<path id="&lt;Path&gt;" class="s1" d="m1833.8 1114.8l2.9 185.9-102.4-3.9 45-182.3c2.4-9.5 7.3-18.4 13.5-21.6 6.7-3.3 16.5-2.7 23.5-0.7 7.9 2.3 17.5 14.1 17.5 22.6z"/>
					<path id="&lt;Path&gt;" class="s2" d="m1836.7 1300.7l-102.4-3.9c66.8-8.6 90-116.9 98.1-188.3 0.9 2.2 1.4 4.3 1.4 6.3z"/>
					<path id="&lt;Path&gt;" class="s3" d="m1782.7 1298.7l8.6-100h-32.8q0.2-0.8 0.5-1.6l0.3-1.3h32.2l9-105q1.5-0.2 3-0.2l-12.2 142.1 44.4 4.7v3l-44.7-4.7-5.4 63.1z"/>
					<path id="&lt;Path&gt;" class="s3" d="m1796.1 1227.4c0.7 0 1.2 0.6 1.2 1.3 0 0.7-0.5 1.3-1.2 1.3-0.7 0-1.3-0.6-1.3-1.3 0-0.7 0.6-1.3 1.3-1.3z"/>
					<path id="&lt;Path&gt;" class="s3" d="m1789.4 1190c0.8 0 1.5 0.7 1.5 1.5 0 0.8-0.7 1.5-1.5 1.5-0.9 0-1.6-0.7-1.6-1.5 0-0.8 0.7-1.5 1.6-1.5z"/>
					<path id="&lt;Path&gt;" class="s4" d="m1844 1325.8c0 0-123.8 1.5-133-3-9.3-4.4 24.3-33 41.9-38.3 32.6-9.8 79.9 2.5 87.7 20.7 7.8 18.1 3.4 20.6 3.4 20.6z"/>
					<path id="&lt;Path&gt;" class="s0" d="m1832.3 1316c0 0 4.4-2.5-3.4-20.7q-0.6-1.5-1.6-2.9c6.5 3.7 11.2 8 13.3 12.8 7.8 18.1 3.4 20.6 3.4 20.6 0 0-123.8 1.5-133-3-2.6-1.2-1.9-4.2 0.8-8.1 33.6 2.3 120.5 1.3 120.5 1.3z"/>
				</g>
				<g id="&lt;Group&gt;">
					<path id="&lt;Path&gt;" class="s1" d="m1947.3 1085.3c7.1-2 16.9-2.7 23.7 0.7 6.3 3.1 11.3 12.1 13.6 21.6l45.4 182.5-103.2 3.9 2.8-186.1c0-8.5 9.8-20.3 17.7-22.6z"/>
					<path id="&lt;Path&gt;" class="s2" d="m1929.6 1107.9c0-2 0.6-4.2 1.5-6.3 8.1 71.5 31.5 179.8 98.9 188.5l-103.2 3.9z"/>
					<path id="&lt;Path&gt;" class="s3" d="m1981.2 1291.9l-1.9 0.1-1 0.1-5.5-63.2-45.1 4.7v-2.5q0-0.1 0.1-0.3v-0.2l44.8-4.6-12.3-142.3q1.5 0 3 0.2l9 105.1h32.6v0.2q0.4 1.4 0.7 2.7h-33z"/>
					<path id="&lt;Path&gt;" class="s3" d="m1969 1221.9c0 0.7-0.5 1.3-1.2 1.3-0.8 0-1.3-0.6-1.3-1.3 0-0.7 0.5-1.3 1.3-1.3 0.7 0 1.2 0.6 1.2 1.3z"/>
					<path id="&lt;Path&gt;" class="s3" d="m1976.1 1184.7c0 0.8-0.7 1.5-1.6 1.5-0.8 0-1.5-0.7-1.5-1.5 0-0.9 0.7-1.6 1.5-1.6 0.9 0 1.6 0.7 1.6 1.6z"/>
					<path id="&lt;Path&gt;" class="s4" d="m1922.8 1298.4c7.9-18.1 55.6-30.4 88.5-20.6 17.8 5.3 51.7 33.9 42.3 38.3-9.3 4.5-134.2 3-134.2 3 0 0-4.4-2.5 3.4-20.7z"/>
					<path id="&lt;Path&gt;" class="s0" d="m2052.8 1308c2.7 3.9 3.4 6.9 0.8 8.1-9.3 4.5-134.2 3-134.2 3 0 0-4.4-2.5 3.4-20.7 2.1-4.7 6.9-9.1 13.4-12.7q-1 1.4-1.6 2.9c-7.9 18.2-3.5 20.7-3.5 20.7 0 0 87.8 1 121.7-1.3z"/>
				</g>
				<g id="&lt;Group&gt;">
					<g id="&lt;Group&gt;">
						<path id="&lt;Path&gt;" class="s1" d="m1956.2 961.2c39.7 0-30.8 100.7-76.2 100.7-54.6 0-120.3-101.4-80.6-101.4z"/>
						<path id="&lt;Path&gt;" class="s2" d="m1880 1061.9c-34.1 0-72.6-39.6-86.9-69.3 18 19.9 42 36.6 64.3 36.6 28.1 0 65.8-38.7 81.1-68.1l17.7 0.1c39.7 0-30.8 100.7-76.2 100.7z"/>
					</g>
					<path id="&lt;Path&gt;" class="s0" d="m1964.4 989.2h-173c-6.6 0-12-5.4-12-12v-12.7c0-6.6 5.4-12 12-12h173c6.6 0 12 5.4 12 12v12.7c0 6.6-5.4 12-12 12z"/>
				</g>
			</g>
		</g>
		<g id="&lt;Group&gt;">
			<g id="&lt;Group&gt;">
				<g id="&lt;Group&gt;">
					<path id="&lt;Path&gt;" class="s1" d="m1740.2 837.3c-2.3-17.5-7.1-43.7-0.4-59.4 8.6-20.2 34-40.7 58.1-50.6 4.6-1.9 9-4.1 13.9-4.4 40.7-2.5 81.4-1.3 121.8 3.5 15.4 1.8 55.3 19.1 67.4 49 5.9 14.7 3.9 38.9 1.5 56.5-4.7 34.3-34.5 68.6-60.3 95.9h-145.6c-25.8-27.3-51.7-56.2-56.4-90.5z"/>
					<path id="&lt;Path&gt;" class="s5" d="m1923.3 739.6c0 9.9-23.3 18-52 18-28.8 0-52.1-8.1-52.1-18 0-9.9 23.3-18 52.1-18 28.7 0 52 8.1 52 18z"/>
					<path id="&lt;Path&gt;" class="s6" d="m1923.3 739.6c0 9.9-23.3 18-52 18q-2.1 0-4-0.1c26.9-0.7 48-8.4 48-17.9 0-9.5-21.1-17.2-48-17.9q1.9-0.1 4-0.1c28.7 0 52 8.1 52 18z"/>
					<path id="&lt;Path&gt;" class="s3" d="m1886.4 927.8c3.6-37.3 8.6-75.4 19.2-111.3-23.2-1.6-46.4 0.2-69.5 2.4 8.4 35.7 12.5 73 19.5 108.9h-12.5c-12.4-66.2-15.2-139.3-57.2-194.8 3.7-2 7.4-3.8 11.2-5.4 17.6 24.2 28.4 51.1 35.9 79.3 25.5-2.5 50.9-4.6 76.4-2.4 9-26.6 21.5-51.7 39.2-74 3.6 1.4 7.6 3.1 11.6 5.2-43.7 53.3-55.1 124.3-61.4 192.1z"/>
					<path id="&lt;Path&gt;" class="s2" d="m2002.5 831.9c-4.7 34.3-34.5 68.6-60.3 95.9h-145.6c-11.3-11.9-22.5-24.1-32-36.9h81.8c63.7 0 112.5-47.8 119.2-95.9 2.2-16.8 4.6-42.1-2-57.5 15.1 8.3 30.6 21.1 37.4 37.9 5.9 14.7 3.9 38.9 1.5 56.5z"/>
				</g>
				<path id="&lt;Path&gt;" class="s0" d="m1898.7 679.7c-1.3 59.3 2.8 64.7-4.1 76-7 1.2-15 1.9-23.3 1.9-8.4 0-16.4-0.7-23.4-1.9-2.6-4.2-4.1-9.1-4.1-14.4v-61.6z"/>
				<path id="&lt;Path&gt;" class="s7" d="m1871.3 757.6q-2.1 0-4-0.1c44.4-1.1 65.1-20.3 31.4-31.1l-0.1-2.1c44.9 9.6 24.3 33.3-27.3 33.3z"/>
			</g>
			<path id="&lt;Path&gt;" class="s5" d="m2004.4 825.4c-4.7 28.4-16.5 50.1-26.3 48.4-9.8-1.6-13.9-25.9-9.1-54.3 4.7-28.4 16.5-50 26.3-48.4 9.8 1.7 13.9 26 9.1 54.3z"/>
			<path id="&lt;Path&gt;" class="s7" d="m2004.4 825.4q-0.3 2-0.7 4c3.8-26.7-0.4-48.8-9.7-50.4-9.3-1.6-20.5 18-25.6 44.4q0.2-1.9 0.6-3.9c4.7-28.4 16.5-50 26.3-48.4 9.8 1.7 13.9 26 9.1 54.3z"/>
			<path id="&lt;Path&gt;" class="s5" d="m1747.5 776.4c9.8-1.6 21.6 20 26.3 48.4 4.8 28.3 0.7 52.6-9.1 54.3-9.8 1.6-21.6-20-26.3-48.4-4.8-28.3-0.7-52.7 9.1-54.3z"/>
			<path id="&lt;Path&gt;" class="s7" d="m1747.5 776.4c9.8-1.6 21.6 20 26.3 48.4q0.4 1.9 0.7 3.9c-5.2-26.4-16.3-46-25.7-44.5-9.3 1.6-13.5 23.8-9.7 50.4q-0.4-1.9-0.7-3.9c-4.8-28.3-0.7-52.7 9.1-54.3z"/>
		</g>
		<g id="&lt;Group&gt;">
			<g id="&lt;Group&gt;">
				<path id="&lt;Path&gt;" class="s0" d="m2056.4 862.6c-50.5 0-79.9-41.5-81.3-43.5-5.2-7.6-3.3-18 4.3-23.2 7.5-5.3 17.9-3.4 23.2 4.1 1.1 1.7 27 37.2 68.7 27.4 15-3.5 31.6-26.8 45.7-63.8 3.3-8.6 12.9-13 21.6-9.7 8.6 3.3 12.9 12.9 9.6 21.6-18.9 49.6-42.2 78-69.3 84.4-7.9 1.9-15.4 2.7-22.5 2.7z"/>
			</g>
			<path id="&lt;Path&gt;" class="s1" d="m2164.1 723.1c0 0-15.4 102.9-36.2 122.3-20.7 19.5-67.8-16.4-64.6-30.2 2.6-11.4 75.1-106.6 75.1-106.6z"/>
			<path id="&lt;Path&gt;" class="s3" d="m2152.7 781.7q-0.5 2.1-1 4.2-0.4 0-0.7 0c-8.4 0-19.6-1.7-30.9-8.6l-31.4 66.6q-1.8-1-3.6-2l60.9-129 3.6 2-27.7 58.7c11.3 7 22.8 8.3 30.8 8.1z"/>
			<path id="&lt;Path&gt;" class="s0" d="m2133 674.5c2.8 5 6.5 2.9 10.4 0 4-3 0-40.5 3.1-43.6 3.1-3.1 9.6-0.3 9.4 3.3-0.1 3.7-1.6 35.3 0.8 34.4 2.5-0.8 11.5-29.9 13.1-33.2 1.5-3.3 7.6-1.5 7.6 2.7 0.1 4.2-10.4 34.6-8.1 35.7 2.2 1 12.8-19 15.4-24.5 2.6-5.5 7.2-4.8 9 0 1.7 4.8-16.7 32.1-12.8 33.9 3.9 1.9 21.5-20.6 24.4-17.5 4.3 4.5-12.3 24.3-17.1 26.1-4.8 1.7-8.7 19-18.1 26.6-9.4 7.7-20.5 5.2-30.4 0.6-9.8-4.6-13-25.1-16.4-34.3-2.1-5.8-7-12.3-10.3-16.2-2.2-2.5-0.8-6.7 2.5-7.1 7.5-0.8 15.3 9.2 17.5 13.1z"/>
		</g>
		<g id="&lt;Group&gt;">
			<g id="&lt;Group&gt;">
				<path id="&lt;Path&gt;" class="s0" d="m1680.8 1021.5c-15.1-93.7 29.6-183.2 55.3-210.5 6.4-6.7 16.9-7 23.7-0.7 6.6 6.3 7 16.9 0.7 23.6-0.5 0.5-29.9 33.1-44.8 101.4-5.8 26.1-6.4 53.3-1.9 80.9 1.4 9.1-4.8 17.7-13.9 19.1-9.1 1.5-17.6-4.7-19.1-13.8z"/>
			</g>
			<path id="&lt;Path&gt;" class="s1" d="m1683.1 1044.5c0 0-34.3-98.2-24.9-125.1 9.3-26.9 67.6-17 71.3-3.3 3 11.3-16.9 129.3-16.9 129.3z"/>
			<path id="&lt;Path&gt;" class="s3" d="m1665.9 987.3q-0.5-2.1-1-4.2 0.3-0.2 0.6-0.3c7.4-3.9 18.1-7.6 31.3-6.8l-3.2-73.6q2.1 0.1 4.1 0.2l6.2 142.6-4.2-0.2-2.8-64.8c-13.3-1-24 3.2-31 7.1z"/>
			<path id="&lt;Path&gt;" class="s0" d="m1677.8 1047.4c0 0 7.5-15.1 28-10.5 20.5 4.7 14.3 25.2 20.1 34.6 5.9 9.3 12.2 22.3 8 24.9-4.2 2.7-19.8-11.6-23-16.7-3.2-5.2-13 22.2-14.8 30.2-1.8 7.9 11.6 31.7 6.5 35-5.2 3.2-26.6-30.2-29.4-34.6-2.8-4.4 2.9-55.3 4.6-62.9z"/>
		</g>
		<g id="&lt;Group&gt;">
			<g id="&lt;Group&gt;">
				<path id="&lt;Path&gt;" class="s0" d="m2150.4 518.7c0 70.9-127.9 128.3-285.7 128.3-157.7 0-285.6-57.4-285.6-128.3 0-70.8 127.9-128.3 285.6-128.3 157.8 0 285.7 57.5 285.7 128.3z"/>
				<g id="&lt;Group&gt;">
					<path id="&lt;Path&gt;" class="s1" d="m1597 473.9q5.5-6.6 12.5-12.8c-1.5 40.4 4.9 87.6 19.7 130.2q-9.1-6-16.7-12.4c-10.3-34.9-15.3-71.7-15.5-105z"/>
					<path id="&lt;Path&gt;" class="s1" d="m2115.2 580.5q-8 6.4-17.5 12.4c16.3-43.1 24.5-91.2 22.1-132q7.1 6.3 12.6 12.9c0.2 33.7-5.8 71.1-17.2 106.7z"/>
				</g>
			</g>
			<path id="&lt;Path&gt;" class="s1" d="m1942.4 700.4c-52.9-7.3-106.6-8.4-159.9-3.3-122.7 12-166.4-171.8-148.9-264.3 8.9-47.1 61.5-80.9 105.9-91.4 80.4-19 166.3-20.2 247.1-3.3 43.4 9.3 86.3 38.7 103.2 81 35.3 88.3-27.6 298-147.4 281.3z"/>
			<path id="&lt;Path&gt;" class="s2" d="m1942.4 700.4c-52.9-7.3-106.6-8.4-159.9-3.3-42.9 4.2-76.1-15.5-100.5-46.9 20.5 15.4 45.1 23.6 74.3 20.7 53.3-5.1 107-4 159.9 3.3 119.8 16.7 182.7-193 147.4-281.3-3.7-9.4-8.8-18.2-14.8-26.2 18 13.7 32.7 31.5 41 52.4 35.3 88.3-27.6 298-147.4 281.3z"/>
			<path id="&lt;Path&gt;" class="s0" d="m1981.9 614.2c-20.4 8-42.3 12.9-62.4 15.6-64.2 8.8-141.3 4.2-197.5-30.6-25.3-15.7-44.9-39.1-49.6-69q-0.6-3.7-1.2-7.3c-9.1-57.3 32.8-109.9 90.6-114.4 69.8-5.4 139.9-5.4 209.6 0 57.8 4.5 99.7 57.1 90.6 114.4q-0.5 3.4-1 6.8c-6.9 43.5-40.4 69.5-79.1 84.5z"/>
			<path id="&lt;Path&gt;" class="s8" d="m1920.7 572.5c0 11.1-23 30.3-51.3 30.3-28.4 0-51.4-19.2-51.4-30.3 0-11.1 23-9.7 51.4-9.7 28.3 0 51.3-1.4 51.3 9.7z"/>
			<path id="&lt;Path&gt;" class="s8" d="m1795.4 502.6c0 9.1-7.4 16.5-16.5 16.5-9.2 0-16.5-7.4-16.5-16.5 0-9.2 7.3-16.6 16.5-16.6 9.1 0 16.5 7.4 16.5 16.6z"/>
			<path id="&lt;Path&gt;" class="s8" d="m1967 497.3c0 9.1-7.4 16.5-16.5 16.5-9.2 0-16.6-7.4-16.6-16.5 0-9.2 7.4-16.5 16.6-16.5 9.1 0 16.5 7.3 16.5 16.5z"/>
		</g>
		<g id="&lt;Group&gt;">
			<g id="&lt;Group&gt;">
				<path id="&lt;Path&gt;" class="s9" d="m1859.7 310.2l12.4-3.8-32.3-9.9 20.4-10.8 0.5-24.8 5.7 0.1-0.5 28.2-11.1 5.9 36.8 11.2-26.2 8.2-0.5 26.5-5.8-0.1z"/>
			</g>
			<path id="&lt;Path&gt;" class="s9" d="m1864 236.1c6.9 0.1 12.4 5.8 12.2 12.7-0.1 6.9-5.8 12.3-12.7 12.2-6.8-0.2-12.3-5.8-12.2-12.7 0.2-6.9 5.9-12.3 12.7-12.2z"/>
			<path id="&lt;Path&gt;" class="s10" d="m1865 334.5c17.5 0.4 31.4 7.3 31.3 15.5-0.2 8.3-14.4 14.6-31.8 14.3-17.5-0.3-31.4-7.3-31.3-15.5 0.2-8.2 14.4-14.6 31.8-14.3z"/>
		</g>
	</g>
</svg>